<?xml version="1.0" standalone="no"?>
<!DOCTYPE svg PUBLIC "-//W3C//DTD SVG 20010904//EN"
 "http://www.w3.org/TR/2001/REC-SVG-20010904/DTD/svg10.dtd">
<svg version="1.0" xmlns="http://www.w3.org/2000/svg"
 width="512.000000pt" height="512.000000pt" viewBox="0 0 512.000000 512.000000"
 preserveAspectRatio="xMidYMid meet">
<metadata>
Created by potrace 1.11, written by Peter Selinger 2001-2013
</metadata>
<g transform="translate(0.000000,512.000000) scale(0.100000,-0.100000)"
fill="#000000" stroke="none">
<path d="M1850 4611 c-91 -49 -283 -219 -362 -321 -133 -171 -205 -352 -213
-533 -1 -32 -4 -59 -6 -61 -2 -1 -47 -16 -99 -33 -213 -69 -418 -198 -502
-316 -16 -22 -5 -17 47 23 142 107 364 196 588 234 45 8 66 37 71 97 16 185
72 332 188 489 45 60 215 233 263 267 l31 21 -11 -64 c-33 -202 12 -452 122
-686 49 -103 64 -121 39 -47 -53 159 -84 359 -80 524 2 120 7 161 32 245 22
79 19 129 -9 151 -34 25 -65 29 -99 10z"/>
<path d="M2425 4350 c-80 -18 -230 -114 -307 -198 -51 -55 -102 -137 -121
-196 -24 -69 -22 -72 20 -24 59 67 123 126 188 173 61 43 156 97 162 91 2 -2
-8 -23 -22 -48 -64 -115 -98 -268 -81 -368 l9 -55 22 75 c29 99 79 196 170
330 76 112 84 134 63 173 -22 42 -55 57 -103 47z"/>
<path d="M2096 3702 c5 -5 68 -30 139 -57 222 -82 419 -183 469 -239 41 -47
48 -119 16 -181 -11 -22 -20 -44 -20 -51 0 -18 123 -96 275 -173 77 -39 163
-85 190 -103 41 -27 61 -32 115 -34 202 -7 253 -22 244 -70 -5 -29 -95 -120
-129 -130 -63 -19 -124 -102 -125 -170 0 -24 -5 -33 -22 -38 -13 -3 -122 -3
-243 0 -503 14 -544 13 -694 -20 -87 -19 -226 -81 -311 -139 -61 -42 -148
-131 -195 -203 -65 -97 -90 -183 -86 -298 1 -44 14 -23 17 30 12 170 172 360
387 459 129 60 219 77 412 80 94 2 199 -1 235 -5 111 -15 270 -24 389 -23 166
1 211 28 227 134 8 54 17 66 70 90 55 26 160 130 173 171 20 66 20 96 -2 140
-37 72 -111 98 -277 99 l-85 0 -155 76 c-85 41 -188 91 -228 111 l-72 36 7 35
c20 100 -6 184 -74 240 -78 65 -295 152 -535 215 -101 27 -128 32 -112 18z"/>
<path d="M2287 3426 c-27 -7 -55 -20 -63 -28 -12 -12 -9 -14 23 -16 21 -2 54
-7 73 -12 35 -9 35 -11 37 -63 2 -99 49 -151 135 -150 51 1 124 31 153 63 9
10 17 35 18 56 3 101 -223 191 -376 150z m173 -111 c59 -30 68 -43 36 -51 -40
-10 -57 -1 -83 39 -27 44 -20 46 47 12z"/>
<path d="M739 3279 c-135 -87 -281 -227 -369 -354 -19 -27 -38 -51 -42 -53 -5
-2 -8 -8 -8 -14 0 -5 -8 -22 -19 -36 -72 -102 -173 -358 -197 -502 -2 -14 -6
-34 -9 -46 -20 -91 -28 -437 -12 -564 14 -110 72 -360 84 -360 3 0 2 42 -1 93
-7 101 -7 366 -1 437 2 25 7 79 10 120 13 155 71 434 109 525 141 335 254 511
471 734 33 33 57 61 54 61 -3 0 -35 -19 -70 -41z"/>
<path d="M287 2303 c-5 -8 -13 -52 -22 -118 -4 -22 -8 -47 -10 -55 -17 -57
-24 -433 -11 -555 36 -342 190 -628 431 -800 136 -98 428 -215 596 -240 24 -4
46 -8 49 -10 3 -1 25 -6 50 -9 25 -3 65 -8 90 -12 52 -7 335 -7 365 -1 11 3
49 8 85 12 170 18 395 99 700 250 487 242 700 323 996 379 145 28 827 29 1014
1 14 -2 48 -6 75 -9 91 -11 150 -18 170 -22 11 -2 40 -6 65 -9 38 -4 34 -1
-25 15 -65 18 -356 74 -435 84 -19 2 -55 7 -80 10 -170 22 -300 30 -500 30
-470 0 -659 -55 -1415 -414 -324 -154 -526 -208 -805 -214 -354 -8 -756 102
-976 267 -205 155 -355 425 -389 702 -4 28 -8 57 -10 65 -23 89 -23 527 -1
638 5 22 1 29 -7 15z"/>
<path d="M421 1918 c2 -173 41 -358 100 -482 10 -22 19 -43 19 -48 0 -4 21
-42 48 -85 64 -106 188 -228 278 -275 60 -32 153 -63 161 -54 2 1 -16 17 -40
34 -207 150 -348 390 -497 847 -29 88 -57 164 -62 170 -5 6 -8 -35 -7 -107z"/>
<path d="M4988 1093 c7 -3 16 -2 19 1 4 3 -2 6 -13 5 -11 0 -14 -3 -6 -6z"/>
</g>
</svg>
